<svg width="25" height="24" viewBox="0 0 25 24" fill="none" xmlns="http://www.w3.org/2000/svg">
<g clip-path="url(#clip0_1_559)">
<path d="M9.89699 8.91804C9.65446 8.91794 9.43016 9.04729 9.30874 9.25745C9.18742 9.4675 9.18731 9.72632 9.30852 9.93648C9.42984 10.1467 9.65392 10.2763 9.89656 10.2763L14.3104 10.2768C14.553 10.2768 14.7773 10.1473 14.8987 9.9371C15.0201 9.72683 15.0201 9.4679 14.8986 9.25774C14.7773 9.04747 14.5531 8.91802 14.3103 8.91801L9.89645 8.91853L9.89699 8.91804Z" fill="#5F647E"/>
<path fill-rule="evenodd" clip-rule="evenodd" d="M5.10903 18.1107C4.92888 18.1105 4.75623 18.0391 4.62891 17.9117C4.50159 17.7844 4.43011 17.6118 4.43011 17.4317L4.42959 14.7146C4.4297 14.5347 4.50118 14.362 4.6285 14.2347C4.75581 14.1074 4.92847 14.0359 5.1084 14.0358C5.65841 14.0513 6.19104 13.8436 6.58554 13.4602C6.97994 13.0768 7.20252 12.5502 7.20263 12.0001C7.20274 11.4501 6.98034 10.9233 6.58617 10.5396C6.19189 10.156 5.65936 9.94824 5.10947 9.96335C4.92921 9.96357 4.75645 9.89197 4.62903 9.76455C4.5016 9.63712 4.4299 9.46425 4.43011 9.28399L4.43066 6.56796C4.43066 6.38792 4.50214 6.21526 4.62946 6.08795C4.75678 5.96063 4.92943 5.88915 5.10947 5.88915L20.0471 5.88915L20.047 5.88904C20.5874 5.88904 21.1055 6.1037 21.4876 6.48577C21.8697 6.86784 22.0843 7.38599 22.0842 7.92625V9.2841C22.0842 9.46414 22.0126 9.63669 21.8853 9.76401C21.758 9.89132 21.5855 9.96292 21.4054 9.96291C20.7495 9.96291 20.0471 10.6212 20.0476 11.6606C20.0476 12.6996 20.7501 13.3579 21.4054 13.3583L21.4053 13.3584C21.5934 13.3583 21.773 13.4361 21.9014 13.5733C22.0299 13.7106 22.0958 13.8948 22.0833 14.0825C22.084 14.0972 22.0843 14.1118 22.0842 14.1265L22.0842 16.074C22.0841 16.614 21.8696 17.1321 21.4876 17.5141C21.1057 17.896 20.5877 18.1105 20.0476 18.1107L16.7731 18.1107L16.7688 18.1111L16.7649 18.1111L5.10903 18.1107ZM20.0467 16.7526L17.4478 16.7521L17.4478 7.24568L20.0472 7.24667H20.047C20.2271 7.24667 20.3998 7.31826 20.5271 7.44558C20.6543 7.57279 20.7259 7.74555 20.7259 7.92559L20.7259 8.69763C19.5011 9.04475 18.6888 10.3103 18.6888 11.6595C18.6893 13.0091 19.5016 14.2748 20.7254 14.6219L20.726 16.0733L20.7261 16.0732C20.7261 16.2532 20.6544 16.4259 20.5271 16.5532C20.3997 16.6805 20.2272 16.7521 20.0471 16.7521L20.0467 16.7526ZM5.78823 7.24568L16.0898 7.24568L16.0898 16.7521L5.78823 16.7521L5.78771 15.3267L5.78782 15.3266C6.81773 15.1157 7.69202 14.4396 8.15523 13.4957C8.61843 12.5519 8.61842 11.4468 8.15523 10.503C7.69191 9.55916 6.81783 8.88312 5.78782 8.67211V7.24611L5.78823 7.24568Z" fill="#5F647E"/>
</g>
<defs>
<clipPath id="clip0_1_559">
<rect width="24" height="24" fill="white" transform="translate(0.859375)"/>
</clipPath>
</defs>
</svg>
