<svg width="24" height="24" viewBox="0 0 24 24" fill="none" xmlns="http://www.w3.org/2000/svg">
<path d="M16.2426 2H7.75745C6.23045 2 4.766 2.60654 3.68627 3.68627C2.60654 4.766 2 6.2305 2 7.75745V16.2426C2 17.7696 2.60654 19.234 3.68627 20.3137C4.766 21.3935 6.2305 22 7.75745 22H16.2426C17.7696 22 19.234 21.3935 20.3137 20.3137C21.3935 19.234 22 17.7695 22 16.2426V7.75745C22 6.23045 21.3935 4.766 20.3137 3.68627C19.234 2.60654 17.7695 2 16.2426 2V2ZM7.75797 3.81816H16.2426C17.2864 3.82141 18.2864 4.23739 19.0246 4.9754C19.7626 5.71362 20.1786 6.71361 20.1818 7.75745V8.0604L4.12122 8.06061C4.01733 8.06203 3.91465 8.08252 3.81827 8.12108V7.75745C3.82151 6.71361 4.2375 5.71362 4.9755 4.9754C5.71373 4.23738 6.71372 3.82138 7.75755 3.81816L7.75797 3.81816ZM14.1215 20.1816H9.87909V15.9392H14.1215V20.1816ZM14.1215 14.1209H9.87909V9.87846H14.1215V14.1209ZM3.81827 9.818C3.91466 9.85655 4.01733 9.87705 4.12122 9.87867H8.06072V14.1211L4.12122 14.1209C4.01733 14.1225 3.91465 14.143 3.81827 14.1816V9.818ZM3.81827 16.2423V15.8787C3.91466 15.9173 4.01733 15.9378 4.12122 15.9392H8.06072V20.1816H7.75756C6.71372 20.1784 5.71373 19.7624 4.97551 19.0244C4.23749 18.2862 3.82149 17.2862 3.81827 16.2424L3.81827 16.2423ZM16.2426 20.1816H15.9396V9.87888H20.182L20.1818 16.2424C20.1786 17.2863 19.7626 18.2863 19.0246 19.0245C18.2864 19.7625 17.2864 20.1785 16.2426 20.1817L16.2426 20.1816Z" fill="#5F647E"/>
</svg>
