<svg width="25" height="24" viewBox="0 0 25 24" fill="none" xmlns="http://www.w3.org/2000/svg">
<path d="M8.95236 21.4884L12.8593 18.5581C12.9419 18.4958 13.0559 18.4958 13.1384 18.5581L17.0454 21.4884C17.5547 21.8699 18.1881 22.0479 18.8216 21.9876C19.4553 21.9273 20.0436 21.633 20.4719 21.1624C20.9003 20.6916 21.138 20.0782 21.1385 19.4419V5.0232C21.1374 4.22167 20.8186 3.45327 20.2519 2.88656C19.685 2.31969 18.9167 2.00092 18.1151 2H7.88285C7.08133 2.00093 6.31293 2.31971 5.74606 2.88656C5.17935 3.45327 4.86057 4.22163 4.8595 5.0232V19.4419C4.8595 20.0785 5.09698 20.6922 5.52524 21.1632C5.95365 21.6341 6.54232 21.9284 7.17597 21.9886C7.80978 22.0487 8.4433 21.8704 8.95252 21.4884H8.95236ZM6.25464 5.02328C6.25511 4.59175 6.42688 4.17797 6.73213 3.87275C7.0372 3.56752 7.45097 3.3959 7.88265 3.39543H18.1153H18.1152C18.5468 3.39589 18.9606 3.56751 19.2657 3.87275C19.5709 4.17798 19.7427 4.59175 19.7432 5.02328V19.442C19.7432 19.7313 19.6353 20.0102 19.4404 20.2244C19.2458 20.4383 18.9782 20.5721 18.6901 20.5995C18.402 20.6268 18.1143 20.5458 17.8827 20.3722L13.9757 17.4428C13.6934 17.2326 13.3509 17.1191 12.999 17.1191C12.647 17.1191 12.3046 17.2326 12.0222 17.4428L8.11525 20.3722C7.88368 20.5458 7.5959 20.6268 7.30778 20.5995C7.01968 20.5721 6.75212 20.4383 6.55748 20.2244C6.36267 20.0102 6.25474 19.7313 6.25474 19.442L6.25464 5.02328Z" fill="#5F647E"/>
<path d="M10.2083 8.04647H15.7897C16.039 8.04647 16.2693 7.91348 16.3939 7.69763C16.5185 7.48179 16.5185 7.2158 16.3939 6.99996C16.2693 6.78412 16.039 6.65112 15.7897 6.65112H10.2083C9.95899 6.65112 9.72867 6.78412 9.60409 6.99996C9.4795 7.2158 9.4795 7.48179 9.60409 7.69763C9.72867 7.91348 9.959 8.04647 10.2083 8.04647Z" fill="#5F647E"/>
</svg>
