<svg width="25" height="24" viewBox="0 0 25 24" fill="none" xmlns="http://www.w3.org/2000/svg">
<path d="M2.85938 5.00004C2.85938 3.34316 4.20254 2 5.85942 2H12.8594C14.5163 2 15.8594 3.34316 15.8594 5.00004V7.50002C15.8594 8.05233 15.4118 8.49998 14.8595 8.49998C14.3072 8.49998 13.8593 8.05233 13.8593 7.50002V5.00004C13.8593 4.44773 13.4117 3.99991 12.8594 3.99991H5.85942C5.30711 3.99991 4.85929 4.44773 4.85929 5.00004V19C4.85929 19.5523 5.30711 20.0001 5.85942 20.0001H12.8594C13.4117 20.0001 13.8593 19.5523 13.8593 19V16.5C13.8593 15.9477 14.3072 15.5 14.8595 15.5C15.4118 15.5 15.8594 15.9477 15.8594 16.5V19C15.8594 20.657 14.5163 22 12.8594 22H5.85942C4.20254 22 2.85938 20.657 2.85938 19V5.00004Z" fill="#5F647E"/>
<path d="M16.8575 15C16.8575 15.3789 17.0716 15.7251 17.4102 15.8945C17.7491 16.0638 18.1545 16.0273 18.4576 15.8001L22.4576 12.8C22.7094 12.611 22.8575 12.3147 22.8575 12C22.8575 11.6852 22.7094 11.3889 22.4576 11.1999L18.4576 8.19987C18.1546 7.97269 17.7491 7.93603 17.4102 8.10545C17.0716 8.27487 16.8575 8.62107 16.8575 8.99993V11H11.8577C11.3054 11 10.8575 11.4477 10.8575 12C10.8575 12.5523 11.3054 12.9999 11.8577 12.9999H16.8575V15Z" fill="#5F647E"/>
</svg>
