<svg width="25" height="24" viewBox="0 0 25 24" fill="none" xmlns="http://www.w3.org/2000/svg">
<path d="M14.3208 22.0001H11.0098C10.4262 22.0001 9.86639 21.7682 9.45373 21.3556C9.04107 20.943 8.80922 20.3832 8.80922 19.7996C8.81129 19.6829 8.78185 19.5677 8.72401 19.4663C8.666 19.3651 8.58182 19.2812 8.48026 19.2237C8.2785 19.0995 8.02392 19.0995 7.82213 19.2237C7.31652 19.5216 6.71229 19.6031 6.14596 19.4499C5.58355 19.2943 5.10395 18.9254 4.80926 18.4217L3.15376 15.5527C2.86267 15.048 2.78365 14.4486 2.93411 13.8857C3.08439 13.3228 3.45192 12.8425 3.9558 12.5502C4.05926 12.4941 4.14568 12.4109 4.20541 12.3094C4.26515 12.208 4.29631 12.0921 4.2951 11.9744C4.29648 11.8592 4.2667 11.7458 4.20869 11.6461C4.15068 11.5466 4.06684 11.4645 3.96614 11.4089C3.4597 11.1162 3.08991 10.6349 2.93757 10.0701C2.78539 9.50548 2.86303 8.90345 3.15378 8.396L4.80927 5.52702C5.10399 5.02331 5.58357 4.6544 6.14598 4.4988C6.71596 4.36005 7.3176 4.46041 7.81183 4.77647C7.94731 4.86305 8.10964 4.89783 8.26869 4.87442C8.42793 4.85118 8.57322 4.77113 8.67823 4.64925C8.78323 4.52738 8.84056 4.37175 8.84004 4.2108C8.83729 3.62552 9.06796 3.06311 9.48094 2.64825C9.89391 2.23338 10.4553 2.00012 11.0406 2.00012H14.3516C14.9354 2.00012 15.495 2.23183 15.9077 2.64463C16.3203 3.05726 16.5522 3.61688 16.5522 4.20067C16.5501 4.31738 16.5795 4.43237 16.6374 4.53377C16.6954 4.63516 16.7796 4.71899 16.8813 4.77649C17.0831 4.90078 17.3376 4.90078 17.5394 4.77649C18.0449 4.47851 18.6491 4.39691 19.2154 4.55029C19.7778 4.70591 20.2574 5.0748 20.5521 5.57851L22.2076 8.44749L22.2078 8.44732C22.4987 8.95204 22.5777 9.55165 22.4275 10.1145C22.277 10.6773 21.9096 11.1576 21.4056 11.4501C21.3021 11.506 21.2157 11.5893 21.156 11.6907C21.0962 11.7923 21.0653 11.9081 21.0663 12.0259C21.0649 12.141 21.0949 12.2545 21.1527 12.354C21.2107 12.4537 21.2945 12.5356 21.3954 12.5914C21.9017 12.884 22.2715 13.3653 22.4238 13.93C22.576 14.4948 22.4984 15.0968 22.2078 15.6042L20.5523 18.4732L20.5521 18.473C20.2574 18.9768 19.7778 19.3457 19.2154 19.5014C18.6525 19.6553 18.0512 19.5736 17.5496 19.2752C17.4141 19.1887 17.2519 19.1537 17.0927 19.1771C16.9335 19.2005 16.7882 19.2804 16.6832 19.4023C16.5783 19.5242 16.5208 19.68 16.5213 19.8407C16.5105 20.4172 16.274 20.9664 15.8625 21.3702C15.451 21.7741 14.8974 22.0003 14.3208 22.0001L14.3208 22.0001ZM8.15114 17.5888C8.5376 17.5903 8.91701 17.6931 9.2515 17.8871C9.58684 18.0784 9.86556 18.3552 10.0588 18.6895C10.2522 19.0236 10.3532 19.4032 10.3517 19.7893C10.3517 19.9649 10.4207 20.1333 10.5438 20.2584C10.6669 20.3834 10.8344 20.455 11.0098 20.4578H14.3208C14.4954 20.4578 14.6627 20.3884 14.7861 20.265C14.9096 20.1415 14.9789 19.9742 14.9789 19.7997C14.9767 19.412 15.0774 19.0307 15.2705 18.6947C15.4639 18.3586 15.7429 18.0799 16.0791 17.8871C16.4124 17.6899 16.7923 17.5857 17.1795 17.5857C17.5666 17.5857 17.9465 17.6899 18.2797 17.8871C18.4308 17.9767 18.6116 18.002 18.7815 17.9576C18.9514 17.9131 19.0967 17.8026 19.1846 17.6506L20.8916 14.7816C20.9806 14.632 21.0057 14.453 20.9612 14.2847C20.9167 14.1165 20.8064 13.9731 20.6551 13.887C20.206 13.6288 19.8624 13.2201 19.6849 12.7333C19.5073 12.2465 19.5074 11.7127 19.6849 11.2258C19.8623 10.7392 20.2059 10.3305 20.6551 10.0721C20.8071 9.98413 20.9176 9.83901 20.962 9.6691C21.0064 9.49902 20.9811 9.31845 20.8916 9.16729L19.1846 6.29831C19.0965 6.14699 18.9526 6.03613 18.7835 5.98982C18.616 5.94576 18.4379 5.97175 18.29 6.06178C17.6081 6.45306 16.77 6.45289 16.0884 6.06126C15.4067 5.66964 14.9843 4.94561 14.979 4.1596C14.979 3.98401 14.9099 3.81565 14.7869 3.69048C14.6638 3.56551 14.4963 3.49389 14.3209 3.49114H11.0098C10.8353 3.49114 10.6679 3.56051 10.5445 3.68394C10.4211 3.80737 10.3517 3.9747 10.3517 4.14927C10.3539 4.53694 10.2532 4.91823 10.0601 5.25425C9.86677 5.59028 9.58771 5.86897 9.25151 6.06177C8.91824 6.25905 8.53829 6.3632 8.15115 6.3632C7.764 6.3632 7.38408 6.25905 7.05096 6.06177C6.89982 5.97226 6.71907 5.94695 6.54915 5.99137C6.37924 6.03578 6.23395 6.14629 6.14599 6.2983L4.49049 9.16728C4.40149 9.31687 4.37636 9.4959 4.42077 9.66425C4.46536 9.83243 4.5757 9.97583 4.72702 10.0619C5.17613 10.3201 5.51973 10.7288 5.69724 11.2156C5.87472 11.7025 5.87472 12.2363 5.69724 12.7231C5.51976 13.2098 5.17617 13.6184 4.72702 13.8768C4.57329 13.9631 4.46054 14.1075 4.41406 14.2776C4.36775 14.4477 4.39151 14.6293 4.48016 14.7816L6.13566 17.6506C6.2238 17.8019 6.36788 17.9128 6.53676 17.9591C6.70426 18.0032 6.88243 17.9772 7.03029 17.8871C7.37182 17.6925 7.75796 17.5897 8.15114 17.5888V17.5888Z" fill="#5F647E"/>
<path d="M12.6653 15.8301C11.6426 15.8301 10.6619 15.4239 9.93868 14.7007C9.21551 13.9775 8.80923 12.9968 8.80923 11.9741C8.80923 10.9514 9.2155 9.97066 9.93868 9.24749C10.6619 8.52431 11.6426 8.11804 12.6653 8.11804C13.688 8.11804 14.6687 8.52431 15.3919 9.24749C16.115 9.97067 16.5213 10.9514 16.5213 11.9741C16.5213 12.9968 16.1151 13.9775 15.3919 14.7007C14.6687 15.4239 13.688 15.8301 12.6653 15.8301ZM12.6653 9.66046C12.0516 9.66046 11.4632 9.90421 11.0292 10.338C10.5954 10.772 10.3517 11.3604 10.3517 11.9741C10.3517 12.5878 10.5954 13.1762 11.0292 13.6101C11.4632 14.044 12.0516 14.2877 12.6653 14.2877C13.279 14.2877 13.8673 14.044 14.3013 13.6101C14.7351 13.1762 14.9789 12.5878 14.9789 11.9741C14.9789 11.3604 14.7351 10.772 14.3013 10.338C13.8674 9.90421 13.279 9.66046 12.6653 9.66046Z" fill="#5F647E"/>
</svg>
