<svg width="25" height="24" viewBox="0 0 25 24" fill="none" xmlns="http://www.w3.org/2000/svg">
<path d="M17.9877 4H7.73107C6.43899 4 5.19984 4.51323 4.28622 5.42684C3.3726 6.34046 2.85938 7.57966 2.85938 8.87169V15.0255C2.85938 16.3176 3.3726 17.5567 4.28622 18.4703C5.19984 19.384 6.43904 19.8972 7.73107 19.8972H17.9877C19.2798 19.8972 20.5189 19.384 21.4325 18.4703C22.3461 17.5567 22.8594 16.3175 22.8594 15.0255V8.87169C22.8594 7.57962 22.3461 6.34046 21.4325 5.42684C20.5189 4.51323 19.2797 4 17.9877 4ZM4.39791 10.6663H7.73116C8.18926 10.6663 8.61251 10.9106 8.84156 11.3075C9.07044 11.7041 9.07044 12.1928 8.84156 12.5894C8.61251 12.9862 8.18926 13.2305 7.73116 13.2305H4.39791V10.6663ZM21.3208 15.0253C21.3181 15.9086 20.9661 16.7549 20.3416 17.3794C19.717 18.0038 18.8708 18.356 17.9876 18.3586H7.73098C6.84774 18.356 6.00159 18.0038 5.37693 17.3794C4.75246 16.7549 4.40046 15.9086 4.39773 15.0253V14.769H7.73098C8.73871 14.769 9.66982 14.2314 10.1736 13.3586C10.6775 12.486 10.6775 11.4108 10.1736 10.5382C9.66982 9.66549 8.73866 9.12787 7.73098 9.12787H4.39773V8.87152C4.40048 7.98827 4.75247 7.14195 5.37693 6.51747C6.00159 5.89299 6.84774 5.54082 7.73098 5.53827H17.9876C18.8708 5.54085 19.717 5.89301 20.3416 6.51747C20.9661 7.14195 21.3181 7.98827 21.3208 8.87152V15.0253Z" fill="#5F647E"/>
</svg>
