<svg width="294" height="272" viewBox="0 0 294 272" fill="none" xmlns="http://www.w3.org/2000/svg">
<path d="M146.882 0L162.254 23.3964L183.411 4.28384L192.032 30.494L217.644 16.8662L218.973 44.2433L247.43 36.9565L241.384 63.7802L270.899 63.2924L257.857 87.8774L286.576 94.2188L267.357 115.021L293.475 127.794L269.287 143.505L291.163 161.906L263.527 171.538L279.786 194.412L250.437 197.362L260.057 223.271L230.84 219.353L233.218 246.669L205.968 236.128L200.954 263.134L177.384 246.634L165.292 271.635L146.882 250.211L128.473 271.635L116.381 246.634L92.8114 263.134L87.7969 236.128L60.5471 246.669L62.9249 219.353L33.7076 223.271L43.3283 197.362L13.9792 194.412L30.2384 171.538L2.60172 161.906L24.4776 143.505L0.289856 127.794L26.408 115.021L7.18894 94.2188L35.9083 87.8774L22.8655 63.2924L52.3814 63.7802L46.3345 36.9565L74.7925 44.2433L76.1213 16.8662L101.733 30.494L110.354 4.28384L131.511 23.3964L146.882 0Z" fill="#EC502C"/>
</svg>
