<svg width="141" height="48" viewBox="0 0 141 48" fill="none" xmlns="http://www.w3.org/2000/svg">
<path d="M14 27.8019C14.1462 30.9908 15.2253 33.745 17.8174 35.7891C19.5729 37.1735 23.1618 38.1218 27.7427 35.7891C32.3237 33.4565 39.6367 20.9394 41.8036 17.6225C47.5297 8.85745 54.1297 6.13057 63.4357 7.23128C69.4163 7.93867 74.4881 10.0669 81.314 18.1883C91.1757 29.9218 95.693 54.8751 86.1494 44.5546C80.5669 38.5176 92.639 41.8681 97.2199 27.4476C99.3254 20.8198 101.928 14.0168 106 12.1789" stroke="#D1F366" stroke-width="0.931152"/>
<path d="M114.197 5.09107C114.876 4.6246 116.453 4.38897 116.931 5.08406C117.422 5.79901 116.622 7.16663 115.943 7.6331L113.627 9.22347L114.031 14.0875C114.052 14.3619 113.926 14.6296 113.698 14.7865L112.582 15.553C112.371 15.6976 112.079 15.6 111.998 15.3579L110.632 11.2803L108.589 12.6838L108.517 14.417C108.511 14.5376 108.45 14.6499 108.35 14.7186L107.516 15.2911C107.362 15.3967 107.152 15.3573 107.034 15.1865C107.029 15.1786 107.015 15.1503 107.004 15.1196L106.127 12.504L104.001 10.7465C103.976 10.7256 103.955 10.7022 103.937 10.6764C103.832 10.5235 103.871 10.3127 104.024 10.207L104.858 9.63457C104.958 9.56583 105.085 9.54884 105.199 9.58709L106.843 10.1418L108.887 8.73827L105.571 6.00006C105.374 5.83645 105.388 5.52945 105.599 5.38487L106.715 4.61833C106.943 4.46148 107.237 4.4391 107.487 4.55929L111.881 6.68143L114.197 5.09107V5.09107Z" fill="#EC502C"/>
<path d="M6.41192 30.4256C5.27839 30.4256 4.17901 30.2754 3.11377 29.9749C2.06219 29.6608 1.21546 29.2579 0.57359 28.7663L1.70028 26.2671C2.31484 26.7177 3.04549 27.0796 3.89222 27.3528C4.73894 27.6259 5.58567 27.7625 6.4324 27.7625C7.37473 27.7625 8.07123 27.6259 8.52191 27.3528C8.97258 27.066 9.19792 26.6904 9.19792 26.2261C9.19792 25.8847 9.06135 25.6047 8.78822 25.3862C8.52874 25.154 8.18731 24.9697 7.76395 24.8331C7.35424 24.6965 6.79431 24.5463 6.08415 24.3824C4.9916 24.1229 4.09707 23.8634 3.40057 23.604C2.70407 23.3445 2.10316 22.9279 1.59786 22.3544C1.10621 21.7808 0.860385 21.016 0.860385 20.06C0.860385 19.2269 1.08572 18.4758 1.5364 17.8066C1.98708 17.1238 2.6631 16.5843 3.56445 16.1883C4.47946 15.7922 5.5925 15.5942 6.90356 15.5942C7.81858 15.5942 8.7131 15.7034 9.58715 15.922C10.4612 16.1405 11.226 16.4546 11.8815 16.8643L10.8572 19.384C9.53252 18.6329 8.2078 18.2573 6.88308 18.2573C5.95441 18.2573 5.26474 18.4075 4.81406 18.708C4.37704 19.0084 4.15853 19.4045 4.15853 19.8961C4.15853 20.3878 4.41118 20.7565 4.91648 21.0023C5.43545 21.2345 6.22072 21.4667 7.2723 21.6988C8.36485 21.9583 9.25938 22.2178 9.95588 22.4773C10.6524 22.7368 11.2465 23.1465 11.7381 23.7064C12.2434 24.2663 12.4961 25.0243 12.4961 25.9803C12.4961 26.7997 12.2639 27.5508 11.7996 28.2337C11.3489 28.9028 10.666 29.4355 9.75103 29.8315C8.83602 30.2276 7.72298 30.4256 6.41192 30.4256ZM19.7826 30.3436C18.6218 30.3436 17.577 30.1047 16.6483 29.6267C15.7333 29.135 15.0163 28.459 14.4974 27.5986C13.9784 26.7382 13.7189 25.7618 13.7189 24.6692C13.7189 23.5767 13.9784 22.6002 14.4974 21.7398C15.0163 20.8794 15.7333 20.2102 16.6483 19.7322C17.577 19.2406 18.6218 18.9948 19.7826 18.9948C20.9434 18.9948 21.9814 19.2406 22.8964 19.7322C23.8114 20.2102 24.5284 20.8794 25.0473 21.7398C25.5663 22.6002 25.8258 23.5767 25.8258 24.6692C25.8258 25.7618 25.5663 26.7382 25.0473 27.5986C24.5284 28.459 23.8114 29.135 22.8964 29.6267C21.9814 30.1047 20.9434 30.3436 19.7826 30.3436ZM19.7826 27.7215C20.602 27.7215 21.2712 27.4484 21.7902 26.9021C22.3228 26.3422 22.5891 25.5979 22.5891 24.6692C22.5891 23.7405 22.3228 23.0031 21.7902 22.4568C21.2712 21.8969 20.602 21.6169 19.7826 21.6169C18.9632 21.6169 18.2872 21.8969 17.7546 22.4568C17.2219 23.0031 16.9556 23.7405 16.9556 24.6692C16.9556 25.5979 17.2219 26.3422 17.7546 26.9021C18.2872 27.4484 18.9632 27.7215 19.7826 27.7215ZM31.0756 19.4045H33.9026V21.8627H31.1576V30.1798H27.9619V18.9128C27.9619 17.6564 28.3306 16.6594 29.0681 15.922C29.8192 15.1845 30.8708 14.8157 32.2228 14.8157C32.7008 14.8157 33.1515 14.8704 33.5749 14.9796C34.0119 15.0752 34.3738 15.2186 34.6606 15.4098L33.8207 17.7247C33.4519 17.4652 33.0217 17.3354 32.5301 17.3354C31.5605 17.3354 31.0756 17.8681 31.0756 18.9333V19.4045ZM42.1411 29.6471C41.827 29.8793 41.4378 30.0569 40.9734 30.1798C40.5227 30.289 40.0516 30.3436 39.5599 30.3436C38.2352 30.3436 37.2178 30.0091 36.5076 29.3399C35.7975 28.6707 35.4424 27.6874 35.4424 26.39V16.7209H38.6381V19.4045H41.3626V21.8627H38.6381V26.349C38.6381 26.8133 38.7542 27.1752 38.9863 27.4347C39.2185 27.6806 39.5531 27.8035 39.9901 27.8035C40.4818 27.8035 40.9188 27.6669 41.3012 27.3938L42.1411 29.6471ZM55.0491 19.1586V28.3361C55.0491 30.3573 54.537 31.8596 53.5127 32.8429C52.4884 33.8262 50.9998 34.3178 49.0469 34.3178C48.009 34.3178 47.0257 34.1881 46.097 33.9286C45.182 33.6691 44.4104 33.2935 43.7822 32.8019L45.0523 30.5075C45.5166 30.8899 46.0833 31.1904 46.7525 31.4089C47.4217 31.6274 48.0977 31.7367 48.7806 31.7367C49.8458 31.7367 50.6243 31.4908 51.1159 30.9992C51.6076 30.5075 51.8534 29.7564 51.8534 28.7458V28.3771C51.4437 28.7868 50.9589 29.1009 50.3989 29.3194C49.839 29.5379 49.2381 29.6471 48.5962 29.6471C47.1486 29.6471 46.0014 29.2374 45.1547 28.418C44.3079 27.585 43.8846 26.3422 43.8846 24.6897V19.1586H47.0803V24.2185C47.0803 26.0076 47.8246 26.9021 49.3132 26.9021C50.078 26.9021 50.6926 26.6563 51.1569 26.1646C51.6212 25.6593 51.8534 24.915 51.8534 23.9317V19.1586H55.0491ZM74.4841 19.8551C73.255 19.145 71.9371 18.6875 70.5304 18.4826V30.1798H67.2118V18.4826C65.8051 18.6875 64.4804 19.145 63.2376 19.8551L62.1109 17.3764C63.0942 16.7892 64.1595 16.3453 65.3067 16.0449C66.4538 15.7444 67.6352 15.5942 68.8506 15.5942C70.0797 15.5942 71.2679 15.7444 72.4151 16.0449C73.5759 16.3453 74.6412 16.7892 75.6108 17.3764L74.4841 19.8551ZM79.7269 20.6131C80.1093 20.0805 80.6214 19.6776 81.2633 19.4045C81.9188 19.1313 82.67 18.9948 83.5167 18.9948V21.9447C83.1616 21.9173 82.9226 21.9037 82.7997 21.9037C81.8847 21.9037 81.1677 22.1632 80.6487 22.6821C80.1298 23.1874 79.8703 23.9522 79.8703 24.9765V30.1798H76.6746V19.1586H79.7269V20.6131ZM96.5019 19.1586V30.1798H93.4495V28.9097C92.6574 29.8657 91.5103 30.3436 90.008 30.3436C88.9701 30.3436 88.0277 30.1115 87.181 29.6471C86.3479 29.1828 85.6924 28.5205 85.2144 27.6601C84.7364 26.7997 84.4974 25.8027 84.4974 24.6692C84.4974 23.5357 84.7364 22.5387 85.2144 21.6783C85.6924 20.818 86.3479 20.1556 87.181 19.6913C88.0277 19.2269 88.9701 18.9948 90.008 18.9948C91.4147 18.9948 92.514 19.4386 93.3061 20.3263V19.1586H96.5019ZM90.5611 27.7215C91.3669 27.7215 92.036 27.4484 92.5687 26.9021C93.1013 26.3422 93.3676 25.5979 93.3676 24.6692C93.3676 23.7405 93.1013 23.0031 92.5687 22.4568C92.036 21.8969 91.3669 21.6169 90.5611 21.6169C89.7417 21.6169 89.0657 21.8969 88.533 22.4568C88.0004 23.0031 87.7341 23.7405 87.7341 24.6692C87.7341 25.5979 88.0004 26.3422 88.533 26.9021C89.0657 27.4484 89.7417 27.7215 90.5611 27.7215ZM110.4 19.1586L105.75 30.1798H102.451L97.8217 19.1586H101.12L104.172 26.6563L107.327 19.1586H110.4ZM116.955 27.783C117.529 27.783 118.034 27.701 118.471 27.5372C118.922 27.3596 119.338 27.0865 119.721 26.7177L121.421 28.5614C120.383 29.7496 118.867 30.3436 116.873 30.3436C115.63 30.3436 114.531 30.1047 113.575 29.6267C112.619 29.135 111.882 28.459 111.363 27.5986C110.844 26.7382 110.584 25.7618 110.584 24.6692C110.584 23.5903 110.837 22.6207 111.342 21.7603C111.861 20.8862 112.565 20.2102 113.452 19.7322C114.354 19.2406 115.364 18.9948 116.484 18.9948C117.536 18.9948 118.492 19.2201 119.352 19.6708C120.212 20.1078 120.895 20.7497 121.401 21.5964C121.919 22.4295 122.179 23.4196 122.179 24.5668L114.026 26.1441C114.258 26.6904 114.62 27.1001 115.112 27.3733C115.617 27.6464 116.231 27.783 116.955 27.783ZM116.484 21.412C115.678 21.412 115.023 21.6715 114.517 22.1905C114.012 22.7094 113.746 23.4264 113.719 24.3414L119.086 23.2967C118.935 22.7231 118.628 22.2656 118.164 21.9242C117.699 21.5827 117.14 21.412 116.484 21.412ZM128.281 30.3436C127.038 30.3436 126.068 30.0159 125.372 29.3603C124.675 28.6912 124.327 27.7488 124.327 26.5334V14.9796H127.523V26.349C127.523 26.8133 127.639 27.1752 127.871 27.4347C128.117 27.6806 128.458 27.8035 128.895 27.8035C129.059 27.8035 129.223 27.783 129.387 27.742C129.564 27.701 129.701 27.6532 129.797 27.5986L129.94 30.0773C129.407 30.2549 128.854 30.3436 128.281 30.3436ZM135.217 30.3436C134.302 30.3436 133.407 30.2344 132.533 30.0159C131.659 29.7837 130.963 29.4969 130.444 29.1555L131.509 26.8611C132.001 27.1752 132.595 27.4347 133.291 27.6396C133.988 27.8308 134.67 27.9264 135.34 27.9264C136.692 27.9264 137.368 27.5918 137.368 26.9226C137.368 26.6085 137.183 26.3831 136.815 26.2466C136.446 26.11 135.879 25.9939 135.114 25.8983C134.213 25.7618 133.469 25.6047 132.881 25.4272C132.294 25.2496 131.782 24.9355 131.345 24.4848C130.922 24.0342 130.71 23.3923 130.71 22.5592C130.71 21.8627 130.908 21.2482 131.304 20.7155C131.714 20.1693 132.301 19.7459 133.066 19.4454C133.844 19.145 134.759 18.9948 135.811 18.9948C136.589 18.9948 137.361 19.0835 138.126 19.2611C138.904 19.425 139.546 19.6571 140.051 19.9576L138.986 22.2314C138.016 21.6852 136.958 21.412 135.811 21.412C135.128 21.412 134.616 21.5076 134.274 21.6988C133.933 21.89 133.762 22.1358 133.762 22.4363C133.762 22.7777 133.947 23.0167 134.315 23.1533C134.684 23.2899 135.271 23.4196 136.077 23.5425C136.979 23.6927 137.716 23.8566 138.29 24.0342C138.863 24.198 139.362 24.5053 139.785 24.956C140.208 25.4067 140.42 26.0349 140.42 26.8407C140.42 27.5235 140.215 28.1312 139.805 28.6638C139.396 29.1965 138.795 29.613 138.003 29.9135C137.224 30.2002 136.296 30.3436 135.217 30.3436Z" fill="#D1F366"/>
</svg>
