<svg width="15" height="13" viewBox="0 0 15 13" fill="none" xmlns="http://www.w3.org/2000/svg">
<path d="M11.1073 0.70999C11.8372 0.208708 13.5321 -0.044498 14.0451 0.702461C14.5728 1.47076 13.7133 2.94044 12.9835 3.44173L10.495 5.15078L10.9284 10.3778C10.9519 10.6727 10.8165 10.9604 10.5711 11.1289L9.3717 11.9527C9.14547 12.108 8.83164 12.0032 8.74402 11.743L7.27669 7.36111L5.08063 8.86936L5.00294 10.7318C4.99711 10.8615 4.93113 10.9822 4.82357 11.056L3.92786 11.6712C3.76255 11.7847 3.53609 11.7424 3.41004 11.5589C3.40418 11.5503 3.38901 11.5199 3.37759 11.4869L2.43522 8.67608L0.150037 6.78748C0.123342 6.76498 0.100403 6.73991 0.0813485 6.71216C-0.0315133 6.54783 0.0102564 6.32127 0.175569 6.20773L1.07128 5.59256C1.17884 5.51869 1.31518 5.50043 1.43826 5.54154L3.20449 6.13762L5.40055 4.62937L1.83746 1.68682C1.62563 1.511 1.64089 1.18109 1.86711 1.02572L3.06652 0.201978C3.31195 0.0334179 3.62836 0.00936483 3.8961 0.13853L8.61888 2.41904L11.1073 0.70999Z" fill="#EC502C"/>
</svg>
