<svg width="64" height="65" viewBox="0 0 64 65" fill="none" xmlns="http://www.w3.org/2000/svg">
<circle cx="32" cy="32.4844" r="32" fill="#F7F5FD"/>
<mask id="mask0_1_616" style="mask-type:alpha" maskUnits="userSpaceOnUse" x="0" y="0" width="64" height="65">
<circle cx="32" cy="32.4844" r="32" fill="#F7F5FD"/>
</mask>
<g mask="url(#mask0_1_616)">
<path d="M31.7489 9.02018C32.1365 9.11247 32.5241 9.15553 32.9179 9.11862C34.8621 8.9525 41.4761 8.87867 44.3309 15.1789C47.6902 22.6112 49.5175 24.6231 47.1734 33.2612C44.8292 41.8994 46.6996 41.5733 47.9117 45.9724L47.9486 46.1016C48.6007 48.4704 46.6812 50.7591 44.2263 50.5561L39.5319 50.1562C39.1935 50.1254 38.8489 50.15 38.5167 50.2177C35.8465 50.7714 23.0923 53.3001 18.201 52.0204C16.5275 51.5836 15.0939 51.0544 13.9003 50.5253C11.8577 49.6209 11.2178 47.0737 12.4853 45.2341C13.0205 44.465 13.4389 43.6221 13.525 42.8162C13.7834 40.3305 12.0546 38.091 12.7375 33.8765C13.8757 26.8195 16.0353 27.4717 16.4167 23.0665C16.6382 20.5439 20.4344 6.31921 31.7428 9.02018H31.7489Z" fill="#EB3F3A"/>
<path d="M31.7489 9.02018C32.1365 9.11247 32.5241 9.15553 32.9179 9.11862C34.8621 8.9525 41.4761 8.87867 44.3309 15.1789C47.6902 22.6112 49.5175 24.6231 47.1734 33.2612C44.8292 41.8994 46.6996 41.5733 47.9117 45.9724L47.9486 46.1016C48.6007 48.4704 46.6812 50.7591 44.2263 50.5561L39.5319 50.1562C39.1935 50.1254 38.8489 50.15 38.5167 50.2177C35.8465 50.7714 23.0923 53.3001 18.201 52.0204C16.5275 51.5836 15.0939 51.0544 13.9003 50.5253C11.8577 49.6209 11.2178 47.0737 12.4853 45.2341C13.0205 44.465 13.4389 43.6221 13.525 42.8162C13.7834 40.3305 12.0546 38.091 12.7375 33.8765C13.8757 26.8195 16.0353 27.4717 16.4167 23.0665C16.6382 20.5439 20.4344 6.31921 31.7428 9.02018H31.7489Z" fill="#EB3F3A"/>
<path d="M56.1519 55.2997C51.0576 53.5832 38.328 46.9938 38.328 46.9938L37.5405 40.9766H26.392L25.6722 46.9938C25.6722 46.9938 12.9487 53.5832 7.84822 55.2997C2.74775 57.0163 2.75391 65.716 2.75391 65.716H61.2524C61.2524 65.716 61.2524 57.0163 56.1581 55.2997H56.1519Z" fill="#FFB69F"/>
<path d="M32.0025 48.8958C35.499 48.8958 38.3335 48.0446 38.3335 46.9946C38.3335 45.9447 35.499 45.0935 32.0025 45.0935C28.506 45.0935 25.6715 45.9447 25.6715 46.9946C25.6715 48.0446 28.506 48.8958 32.0025 48.8958Z" fill="#FFB69F"/>
<path d="M25.9138 45.0005C25.9138 45.0005 34.5582 45.7942 37.6037 42.0042V37.6482L26.646 38.7003L25.9138 45.0005Z" fill="#FF9988"/>
<path d="M32.5192 42.7244C39.4884 42.7244 45.138 35.5019 45.138 26.5924C45.138 17.683 39.4884 10.4604 32.5192 10.4604C25.5499 10.4604 19.9003 17.683 19.9003 26.5924C19.9003 35.5019 25.5499 42.7244 32.5192 42.7244Z" fill="#FFB69F"/>
<path d="M44.7388 25.0471C44.7388 25.0471 46.9168 24.7825 47.1137 26.8559C47.3106 28.9293 46.6153 30.5228 45.3233 31.2119C45.3233 31.2119 45.0464 31.3473 44.4127 31.458L44.7388 25.0532V25.0471Z" fill="#FFB69F"/>
<path d="M20.1539 25.0471C20.1539 25.0471 17.9758 24.7825 17.779 26.8559C17.5821 28.9293 18.2773 30.5228 19.5694 31.2119C19.5694 31.2119 19.8462 31.3473 20.4799 31.458L20.1539 25.0532V25.0471Z" fill="#FFB69F"/>
<path d="M19.902 25.1964C19.902 25.1964 18.9852 10.3442 32.5208 10.5226V26.0639L19.902 25.1964Z" fill="#FFB69F"/>
<path d="M45.1341 25.1964C45.1341 25.1964 46.0508 10.3442 32.5152 10.5226V26.0639L45.1341 25.1964Z" fill="#FFB69F"/>
<path d="M23.869 23.3566C25.9486 22.9813 27.7882 23.2766 28.7234 23.4551C29.0064 23.5104 29.2894 23.3751 29.3756 23.1413C29.474 22.8767 29.2894 22.606 28.9695 22.5445C27.9051 22.3415 25.9916 22.0338 23.9859 22.7352C23.6783 22.846 23.1307 23.1474 23.2968 23.3874C23.3891 23.4735 23.5921 23.3997 23.869 23.3505V23.3566Z" fill="#EB3F3A"/>
<path d="M41.2977 23.3626C39.2181 22.9873 37.3785 23.2826 36.4433 23.461C36.1603 23.5164 35.8773 23.3749 35.7912 23.1411C35.6927 22.8766 35.8773 22.5997 36.1972 22.5382C37.2616 22.329 39.1751 22.0213 41.1808 22.735C41.4884 22.8458 42.036 23.1473 41.8699 23.3934C41.7776 23.4795 41.5746 23.4057 41.2977 23.3565V23.3626Z" fill="#EB3F3A"/>
<path d="M38.4827 27.8836C38.8939 27.8836 39.2272 27.3052 39.2272 26.5916C39.2272 25.878 38.8939 25.2996 38.4827 25.2996C38.0716 25.2996 37.7383 25.878 37.7383 26.5916C37.7383 27.3052 38.0716 27.8836 38.4827 27.8836Z" fill="#441D39"/>
<path d="M27.3147 27.6192C27.7259 27.6192 28.0592 27.0408 28.0592 26.3272C28.0592 25.6136 27.7259 25.0352 27.3147 25.0352C26.9036 25.0352 26.5703 25.6136 26.5703 26.3272C26.5703 27.0408 26.9036 27.6192 27.3147 27.6192Z" fill="#441D39"/>
<path d="M33.388 32.4007H32.2129C31.6899 32.4007 31.2285 32.1977 30.9824 31.8593C30.804 31.6194 30.7547 31.3363 30.8409 31.0595C31.1116 30.1735 31.3392 29.3306 31.3392 29.3306C31.3823 29.1645 31.5546 29.0722 31.7145 29.1153C31.8807 29.1583 31.9791 29.3306 31.9299 29.4906C31.9299 29.4906 31.7022 30.3458 31.4254 31.2379C31.4008 31.3302 31.4131 31.4102 31.4746 31.4963C31.6038 31.6686 31.893 31.7855 32.2129 31.7855H33.388C33.5603 31.7855 33.6957 31.9208 33.6957 32.0931C33.6957 32.2654 33.5603 32.4007 33.388 32.4007Z" fill="#FF9988"/>
<path d="M30.7163 36.405C30.1441 36.405 29.7688 36.3743 29.7257 36.3681C29.5596 36.3558 29.4304 36.202 29.4488 36.0359C29.4611 35.8636 29.615 35.7467 29.7811 35.7529C29.818 35.7529 33.288 36.0359 35.8598 34.7684C36.0136 34.6946 36.1982 34.7561 36.272 34.91C36.3459 35.0638 36.2843 35.2483 36.1305 35.3222C34.2478 36.2512 31.9898 36.3989 30.7224 36.3989L30.7163 36.405Z" fill="#FF9988"/>
<path d="M39.097 29.9085C40.2828 29.9085 41.2442 29.6881 41.2442 29.4163C41.2442 29.1444 40.2828 28.9241 39.097 28.9241C37.9111 28.9241 36.9497 29.1444 36.9497 29.4163C36.9497 29.6881 37.9111 29.9085 39.097 29.9085Z" fill="#FF9988"/>
<path d="M26.572 29.9085C27.7579 29.9085 28.7192 29.6881 28.7192 29.4163C28.7192 29.1444 27.7579 28.9241 26.572 28.9241C25.3861 28.9241 24.4247 29.1444 24.4247 29.4163C24.4247 29.6881 25.3861 29.9085 26.572 29.9085Z" fill="#FF9988"/>
<path d="M38.3355 46.9947C38.3355 46.9947 38.1571 44.9274 38.0463 44.7982C35.2715 45.678 30.0357 45.5796 25.9566 44.6321C25.9566 44.6321 25.6059 46.0103 20.4808 49.6218L12.9255 53.221L12.2302 65.7169H51.0775L49.7854 52.6796L38.3417 46.9947H38.3355Z" fill="#1C2642"/>
<path d="M36.723 9.98726C36.7045 9.9565 36.6922 9.91958 36.6738 9.89497C36.2738 9.2305 30.1151 8.95979 29.6045 9.11975C29.1922 9.24896 23.8826 12.3068 21.8646 13.4758C21.3662 13.7649 20.9847 14.2141 20.7879 14.7555L16.6903 25.867C16.5918 26.1316 16.5426 26.4146 16.5364 26.7038L16.3765 49.1114C16.3703 50.3788 15.6874 51.2155 16.9487 51.3447L22.4983 51.9785C23.7103 52.1015 24.8239 51.3263 25.1316 50.1511L25.5622 47.7086C25.7099 47.1425 25.5376 46.6996 25.6053 46.0105C25.8391 43.7094 22.086 38.3998 22.6213 36.7878C23.2858 34.7821 24.1964 32.6348 24.3563 29.9154C24.5163 27.196 22.7567 22.397 25.2362 16.5643C27.2296 11.8761 31.8563 12.8113 33.5913 13.3589C33.7205 13.4019 33.8559 13.4265 33.9912 13.445C33.9912 13.445 43.9584 16.5336 44.2168 27.6205C44.2168 27.6205 44.6229 28.248 44.8813 27.5097C46.6593 22.3847 44.3521 11.0886 36.7168 9.99342L36.723 9.98726Z" fill="#EB3F3A"/>
<path d="M45.1219 30.5296C45.3529 30.5296 45.5402 30.3423 45.5402 30.1112C45.5402 29.8802 45.3529 29.6929 45.1219 29.6929C44.8908 29.6929 44.7035 29.8802 44.7035 30.1112C44.7035 30.3423 44.8908 30.5296 45.1219 30.5296Z" fill="white"/>
</g>
</svg>
