<svg width="10" height="13" viewBox="0 0 10 13" fill="none" xmlns="http://www.w3.org/2000/svg">
<g clip-path="url(#clip0_1_719)">
<path d="M5.63312 11.95C6.87062 10.4453 9.62299 6.79844 9.62299 4.75C9.62299 2.26469 7.58514 0.25 5.07126 0.25C2.55833 0.25 0.519538 2.26469 0.519538 4.75C0.519538 6.79844 3.29324 10.4453 4.50941 11.95C4.801 12.3086 5.34152 12.3086 5.63312 11.95ZM5.07126 6.25C4.23441 6.25 3.55402 5.57734 3.55402 4.75C3.55402 3.92266 4.23441 3.25 5.07126 3.25C5.90812 3.25 6.5885 3.92266 6.5885 4.75C6.5885 5.57734 5.90812 6.25 5.07126 6.25Z" fill="#EC502C"/>
</g>
<defs>
<clipPath id="clip0_1_719">
<rect width="9.10345" height="12" fill="white" transform="matrix(-1 0 0 1 9.62299 0.25)"/>
</clipPath>
</defs>
</svg>
