<svg width="26" height="26" viewBox="0 0 26 26" fill="none" xmlns="http://www.w3.org/2000/svg">
<path d="M10.9915 3.51858C11.1534 3.11852 11.431 2.77591 11.7889 2.53467C12.1467 2.29343 12.5684 2.16455 13 2.16455C13.4316 2.16455 13.8533 2.29343 14.2112 2.53467C14.569 2.77591 14.8466 3.11852 15.0085 3.51858C16.6105 3.95916 18.0236 4.91344 19.0307 6.23486C20.0378 7.55629 20.5833 9.17179 20.5833 10.8333V15.9217L22.568 18.8987C22.6769 19.0618 22.7394 19.2515 22.7489 19.4474C22.7584 19.6433 22.7146 19.8381 22.622 20.011C22.5295 20.1839 22.3918 20.3285 22.2235 20.4293C22.0553 20.5301 21.8628 20.5833 21.6667 20.5833H16.7538C16.6233 21.4858 16.1721 22.3111 15.4827 22.908C14.7933 23.5049 13.9119 23.8335 13 23.8335C12.0881 23.8335 11.2067 23.5049 10.5173 22.908C9.82794 22.3111 9.3767 21.4858 9.24626 20.5833H4.33334C4.13721 20.5833 3.94475 20.5301 3.7765 20.4293C3.60825 20.3285 3.47051 20.1839 3.37798 20.011C3.28545 19.8381 3.24161 19.6433 3.25112 19.4474C3.26064 19.2515 3.32316 19.0618 3.43201 18.8987L5.41668 15.9217V10.8333C5.41668 7.34058 7.77834 4.39825 10.9915 3.51858ZM11.4682 20.5833C11.5801 20.9003 11.7875 21.1748 12.062 21.369C12.3364 21.5632 12.6644 21.6675 13.0006 21.6675C13.3368 21.6675 13.6647 21.5632 13.9391 21.369C14.2136 21.1748 14.421 20.9003 14.5329 20.5833H11.4671H11.4682ZM13 5.41658C11.5634 5.41658 10.1857 5.98727 9.16985 7.00309C8.15403 8.01891 7.58334 9.39666 7.58334 10.8333V16.2499C7.58339 16.4639 7.52006 16.6731 7.40134 16.8512L6.35809 18.4166H19.6408L18.5976 16.8512C18.4793 16.673 18.4163 16.4638 18.4167 16.2499V10.8333C18.4167 9.39666 17.846 8.01891 16.8302 7.00309C15.8144 5.98727 14.4366 5.41658 13 5.41658Z" fill="#5F647E"/>
</svg>
